Baby Got Boobs # 8 DVD

Brazzers

Category All Sex Movies, Big Tits 

Starring Sarah Vandella, Lizzy London, Nicole Aniston, Jacky Joy, 

Tasha Reign, Samantha Saint, Richelle Ryan .

Info

'Switchblade Slut' - Sarah is on a date with a total loser. The date is boring and going nowhere, so when Johnny pulls up in a car next to Sarah, she pulls out her switchblade and scares the square off. The two sneak off for some fast whoopee!

'The Joy Toy' - Jacky goes to see Johnny at the tanning salon. While getting everything ready, Johnny spots Jacky completely undressed, and boy is he turned on. Lucky for him, Jacky is just as horny. Sex time!

'Wild Girls' - Lizzy and Nicole have been planning a downright dirty scheme for the last few months. With the help of their teacher, Mr. Gunn, these two sexy ladies are going to make some serious money!

'Abrascrewdabra' - The great Bobbledini's tricks are not working out so well. To save the night Bobbledini gets his assistant, Richelle, to perform the best trick of all, make his cock disappear down her mouth and get fucked in her tight pussy!

'My Mommy Does Porno: Part II' - Samantha just walked in on her mother, Julia, fucking and sucking for a dirty movie. Upset at her mother for being a hypocrite, Samantha calls Keiran, grabs the film crew and shoots a video of her own!


Studio Brazzers 

Discs 1 

Release Date New Baby Got Boobs # 8 DVD release date Feb 21, 2012

                             COVERS
 
http://bayimg.com/pAmpnaado
 
http://bayimg.com/pAmPPAADO
 
http://bayimg.com/AamaEAaDP

                             info

General
Complete name                    : C:\Downloads\Baby Got Boobs # 8 DVD\DVD\Baby Got Boobs # 8 DVD.avi
Format                           : AVI
Format/Info                      : Audio Video Interleave
Format profile                   : OpenDML
File size                        : 1.69 GiB
Duration                         : 3h 3mn
Overall bit rate                 : 1 315 Kbps
Writing application              : MEncoder SVN-r30881(20100311-gcc4.3.3)
Writing library                  : MPlayer

Video
ID                               : 0
Format                           : MPEG-4 Visual
Format profile                   : Advanced Simple@L5
Format settings, BVOP            : 2
Format settings, QPel            : No
Format settings, GMC             : No warppoints
Format settings, Matrix          : Default (H.263)
Codec ID                         : XVID
Codec ID/Hint                    : XviD
Duration                         : 3h 3mn
Bit rate                         : 35.3 Kbps
Width                            : 720 pixels
Height                           : 480 pixels
Display aspect ratio             : 3:2
Frame rate                       : 25.000 fps
Standard                         : NTSC
Color space                      : YUV
Chroma subsampling               : 4:2:0
Bit depth                        : 8 bits
Scan type                        : Progressive
Compression mode                 : Lossy
Bits/(Pixel*Frame)               : 0.004
Stream size                      : 46.3 MiB (3%)
Writing library                  : XviD 1.2.1 (UTC 2008-12-04)

Audio
ID                               : 1
Format                           : MPEG Audio
Codec ID                         : 55
Codec ID/Hint                    : MP3
Duration                         : 3h 3mn
Bit rate                         : 128 Kbps
Channel(s)                       : 2 channels
Sampling rate                    : 44.1 KHz
Compression mode                 : Lossy
Stream size                      : 168 MiB (10%)
Alignment                        : Aligned on interleaves